<svg xmlns="http://www.w3.org/2000/svg" xmlns:xlink="http://www.w3.org/1999/xlink" viewBox="215 630 1065 240" preserveAspectRatio="xMidYMid meet" version="1.0"><defs><g/><clipPath id="df3e5bfa88"><path d="M 958 800 L 1079 800 L 1079 855 L 958 855 Z M 958 800 " clip-rule="nonzero"/></clipPath><clipPath id="f89fe3ecae"><path d="M 836.429688 717.558594 L 1029.742188 600.964844 L 1139.363281 782.71875 L 946.050781 899.308594 Z M 836.429688 717.558594 " clip-rule="nonzero"/></clipPath><clipPath id="27c6d68cba"><path d="M 836.429688 717.558594 L 1029.742188 600.964844 L 1139.363281 782.71875 L 946.050781 899.308594 Z M 836.429688 717.558594 " clip-rule="nonzero"/></clipPath><clipPath id="d1107e9c8b"><path d="M 951.070312 807.449219 L 1047.566406 749.246094 L 1086.664062 814.070312 L 990.167969 872.269531 Z M 951.070312 807.449219 " clip-rule="nonzero"/></clipPath><clipPath id="30e5436f41"><path d="M 911 751 L 990 751 L 990 864 L 911 864 Z M 911 751 " clip-rule="nonzero"/></clipPath><clipPath id="307c6d77cf"><path d="M 836.429688 717.558594 L 1029.742188 600.964844 L 1139.363281 782.71875 L 946.050781 899.308594 Z M 836.429688 717.558594 " clip-rule="nonzero"/></clipPath><clipPath id="ef56fc0844"><path d="M 836.429688 717.558594 L 1029.742188 600.964844 L 1139.363281 782.71875 L 946.050781 899.308594 Z M 836.429688 717.558594 " clip-rule="nonzero"/></clipPath><clipPath id="86a43fa84e"><path d="M 881 689 L 957 689 L 957 804 L 881 804 Z M 881 689 " clip-rule="nonzero"/></clipPath><clipPath id="0650cfbc0e"><path d="M 836.429688 717.558594 L 1029.742188 600.964844 L 1139.363281 782.71875 L 946.050781 899.308594 Z M 836.429688 717.558594 " clip-rule="nonzero"/></clipPath><clipPath id="75018d4d85"><path d="M 836.429688 717.558594 L 1029.742188 600.964844 L 1139.363281 782.71875 L 946.050781 899.308594 Z M 836.429688 717.558594 " clip-rule="nonzero"/></clipPath><clipPath id="824e713c78"><path d="M 896 645 L 1017 645 L 1017 700 L 896 700 Z M 896 645 " clip-rule="nonzero"/></clipPath><clipPath id="e4d8ef52be"><path d="M 836.429688 717.558594 L 1029.742188 600.964844 L 1139.363281 782.71875 L 946.050781 899.308594 Z M 836.429688 717.558594 " clip-rule="nonzero"/></clipPath><clipPath id="abe50aa9ec"><path d="M 836.429688 717.558594 L 1029.742188 600.964844 L 1139.363281 782.71875 L 946.050781 899.308594 Z M 836.429688 717.558594 " clip-rule="nonzero"/></clipPath><clipPath id="777cd99e59"><path d="M 986 636 L 1064 636 L 1064 749 L 986 749 Z M 986 636 " clip-rule="nonzero"/></clipPath><clipPath id="63df6e3747"><path d="M 836.429688 717.558594 L 1029.742188 600.964844 L 1139.363281 782.71875 L 946.050781 899.308594 Z M 836.429688 717.558594 " clip-rule="nonzero"/></clipPath><clipPath id="091ec018ab"><path d="M 836.429688 717.558594 L 1029.742188 600.964844 L 1139.363281 782.71875 L 946.050781 899.308594 Z M 836.429688 717.558594 " clip-rule="nonzero"/></clipPath><clipPath id="fd9fc995d7"><path d="M 1019 696 L 1095 696 L 1095 811 L 1019 811 Z M 1019 696 " clip-rule="nonzero"/></clipPath><clipPath id="63b68150fe"><path d="M 836.429688 717.558594 L 1029.742188 600.964844 L 1139.363281 782.71875 L 946.050781 899.308594 Z M 836.429688 717.558594 " clip-rule="nonzero"/></clipPath><clipPath id="e091d80b8c"><path d="M 836.429688 717.558594 L 1029.742188 600.964844 L 1139.363281 782.71875 L 946.050781 899.308594 Z M 836.429688 717.558594 " clip-rule="nonzero"/></clipPath><clipPath id="cfe06f27aa"><path d="M 988.226562 750.1875 L 1084.664062 692.023438 L 1123.78125 756.882812 L 1027.34375 815.046875 Z M 988.226562 750.1875 " clip-rule="nonzero"/></clipPath></defs><g clip-path="url(#df3e5bfa88)"><g clip-path="url(#f89fe3ecae)"><g clip-path="url(#27c6d68cba)"><g clip-path="url(#d1107e9c8b)"><path fill="#0097b2" d="M 959.484375 821.195312 L 1019.511719 854.335938 C 1019.636719 854.40625 1019.792969 854.402344 1019.917969 854.328125 L 1078.632812 818.914062 C 1078.757812 818.839844 1078.832031 818.703125 1078.828125 818.558594 L 1078.488281 800.75 C 1078.480469 800.4375 1078.140625 800.25 1077.875 800.410156 L 1019.558594 835.582031 C 1019.433594 835.65625 1019.277344 835.660156 1019.152344 835.589844 L 959.535156 802.671875 C 959.261719 802.523438 958.925781 802.722656 958.933594 803.035156 L 959.273438 820.84375 C 959.277344 820.992188 959.355469 821.121094 959.484375 821.195312 " fill-opacity="1" fill-rule="nonzero"/></g></g></g></g><g clip-path="url(#30e5436f41)"><g clip-path="url(#307c6d77cf)"><g clip-path="url(#ef56fc0844)"><path fill="#0097b2" d="M 911.992188 761.054688 L 913.300781 829.609375 C 913.304688 829.757812 913.382812 829.886719 913.511719 829.957031 L 973.539062 863.101562 C 973.664062 863.171875 973.820312 863.167969 973.945312 863.09375 L 989.195312 853.894531 C 989.464844 853.734375 989.457031 853.34375 989.183594 853.191406 L 929.566406 820.273438 C 929.441406 820.203125 929.359375 820.074219 929.355469 819.925781 L 928.054688 751.839844 C 928.050781 751.527344 927.707031 751.339844 927.441406 751.5 L 912.1875 760.699219 C 912.0625 760.773438 911.988281 760.910156 911.992188 761.054688 " fill-opacity="1" fill-rule="nonzero"/></g></g></g><g clip-path="url(#86a43fa84e)"><g clip-path="url(#0650cfbc0e)"><g clip-path="url(#75018d4d85)"><path fill="#0097b2" d="M 940.324219 689.855469 L 881.609375 725.269531 C 881.484375 725.34375 881.410156 725.480469 881.414062 725.625 L 882.726562 794.179688 C 882.726562 794.324219 882.808594 794.457031 882.933594 794.527344 L 898.527344 803.136719 C 898.800781 803.289062 899.136719 803.085938 899.128906 802.773438 L 897.828125 734.6875 C 897.824219 734.542969 897.898438 734.40625 898.023438 734.332031 L 956.339844 699.160156 C 956.605469 699 956.597656 698.609375 956.324219 698.457031 L 940.730469 689.847656 C 940.605469 689.777344 940.449219 689.78125 940.324219 689.855469 " fill-opacity="1" fill-rule="nonzero"/></g></g></g><g clip-path="url(#824e713c78)"><g clip-path="url(#e4d8ef52be)"><g clip-path="url(#abe50aa9ec)"><path fill="#0097b2" d="M 1016.15625 678.792969 L 956.125 645.652344 C 956 645.582031 955.84375 645.585938 955.722656 645.660156 L 897.003906 681.074219 C 896.878906 681.148438 896.804688 681.28125 896.808594 681.429688 L 897.148438 699.238281 C 897.15625 699.550781 897.496094 699.738281 897.765625 699.578125 L 956.078125 664.40625 C 956.203125 664.332031 956.359375 664.328125 956.484375 664.398438 L 1016.101562 697.3125 C 1016.375 697.464844 1016.710938 697.261719 1016.703125 696.953125 L 1016.363281 679.140625 C 1016.359375 678.996094 1016.28125 678.863281 1016.15625 678.792969 " fill-opacity="1" fill-rule="nonzero"/></g></g></g><g clip-path="url(#777cd99e59)"><g clip-path="url(#63df6e3747)"><g clip-path="url(#091ec018ab)"><path fill="#0097b2" d="M 1063.644531 738.933594 L 1062.335938 670.378906 C 1062.332031 670.230469 1062.253906 670.101562 1062.125 670.03125 L 1002.097656 636.886719 C 1001.972656 636.816406 1001.816406 636.820312 1001.691406 636.894531 L 986.441406 646.09375 C 986.171875 646.253906 986.179688 646.644531 986.453125 646.796875 L 1046.070312 679.710938 C 1046.199219 679.78125 1046.277344 679.914062 1046.28125 680.058594 L 1047.582031 748.148438 C 1047.589844 748.460938 1047.929688 748.648438 1048.199219 748.488281 L 1063.449219 739.289062 C 1063.574219 739.214844 1063.648438 739.078125 1063.644531 738.933594 " fill-opacity="1" fill-rule="nonzero"/></g></g></g><g clip-path="url(#fd9fc995d7)"><g clip-path="url(#63b68150fe)"><g clip-path="url(#e091d80b8c)"><g clip-path="url(#cfe06f27aa)"><path fill="#0097b2" d="M 1035.3125 810.132812 L 1094.027344 774.71875 C 1094.152344 774.644531 1094.226562 774.507812 1094.222656 774.363281 L 1092.914062 705.808594 C 1092.910156 705.664062 1092.832031 705.53125 1092.703125 705.460938 L 1077.109375 696.851562 C 1076.835938 696.699219 1076.503906 696.902344 1076.507812 697.214844 L 1077.808594 765.300781 C 1077.8125 765.445312 1077.738281 765.582031 1077.613281 765.65625 L 1019.296875 800.828125 C 1019.03125 800.988281 1019.039062 801.378906 1019.3125 801.53125 L 1034.90625 810.140625 C 1035.03125 810.210938 1035.1875 810.207031 1035.3125 810.132812 " fill-opacity="1" fill-rule="nonzero"/></g></g></g></g><g fill="#ffffff" fill-opacity="1"><g transform="translate(216.652499, 835.499908)"><g><path d="M 151.734375 -6.0625 C 136.765625 -1.207031 120.578125 1.21875 103.171875 1.21875 C 42.484375 1.21875 12.140625 -28.925781 12.140625 -89.21875 C 12.140625 -146.269531 42.484375 -174.796875 103.171875 -174.796875 C 120.578125 -174.796875 136.765625 -172.367188 151.734375 -167.515625 L 151.734375 -148.09375 C 136.765625 -153.75 121.390625 -156.578125 105.609375 -156.578125 C 58.265625 -156.578125 34.59375 -134.125 34.59375 -89.21875 C 34.59375 -41.070312 58.265625 -17 105.609375 -17 C 121.390625 -17 136.765625 -19.828125 151.734375 -25.484375 Z M 151.734375 -6.0625 "/></g></g></g><g fill="#ffffff" fill-opacity="1"><g transform="translate(409.62935, 835.499908)"><g><path d="M 41.875 -173.578125 L 41.875 0 L 19.421875 0 L 19.421875 -173.578125 Z M 41.875 -173.578125 "/></g></g></g><g fill="#ffffff" fill-opacity="1"><g transform="translate(495.788042, 835.499908)"><g><path d="M 12.140625 -38.484375 C 12.140625 -64.617188 29.375 -77.6875 63.84375 -77.6875 C 74.9375 -77.6875 86.023438 -76.878906 97.109375 -75.265625 L 97.109375 -87.28125 C 97.109375 -101.925781 85.65625 -109.25 62.75 -109.25 C 49.644531 -109.25 36.210938 -107.222656 22.453125 -103.171875 L 22.453125 -121.390625 C 36.210938 -125.429688 49.644531 -127.453125 62.75 -127.453125 C 100.625 -127.453125 119.5625 -114.257812 119.5625 -87.875 L 119.5625 0 L 106.9375 0 L 99.171875 -12.625 C 86.460938 -4.207031 72.625 0 57.65625 0 C 27.3125 0 12.140625 -12.828125 12.140625 -38.484375 Z M 63.84375 -59.484375 C 44.34375 -59.484375 34.59375 -52.601562 34.59375 -38.84375 C 34.59375 -25.082031 42.28125 -18.203125 57.65625 -18.203125 C 73.195312 -18.203125 86.347656 -22.332031 97.109375 -30.59375 L 97.109375 -57.046875 C 86.023438 -58.671875 74.9375 -59.484375 63.84375 -59.484375 Z M 63.84375 -59.484375 "/></g></g></g><g fill="#ffffff" fill-opacity="1"><g transform="translate(658.418845, 835.499908)"><g><path d="M 4.25 -127.453125 L 26.953125 -127.453125 L 49.53125 -27.546875 L 82.65625 -127.453125 L 102.9375 -127.453125 L 138.375 -27.546875 L 158.765625 -127.453125 L 182.5625 -127.453125 L 149.296875 0 L 128.78125 0 L 92.25 -95.28125 L 57.53125 0 L 36.53125 0 Z M 4.25 -127.453125 "/></g></g></g><g fill="#ffffff" fill-opacity="1"><g transform="translate(870.089943, 835.499908)"><g/></g></g><g fill="#ffffff" fill-opacity="1"><g transform="translate(955.64172, 835.499908)"><g/></g></g><g fill="#ffffff" fill-opacity="1"><g transform="translate(1041.193497, 835.499908)"><g/></g></g><g fill="#ffffff" fill-opacity="1"><g transform="translate(1126.753983, 835.499908)"><g><path d="M 18.203125 -6.0625 L 18.203125 -26.703125 C 36.410156 -20.234375 56.078125 -17 77.203125 -17 C 107.054688 -17 121.984375 -27.921875 121.984375 -49.765625 C 121.984375 -68.378906 110.976562 -77.6875 88.96875 -77.6875 L 66.640625 -77.6875 C 30.304688 -77.6875 12.140625 -93.46875 12.140625 -125.03125 C 12.140625 -158.207031 35.40625 -174.796875 81.9375 -174.796875 C 102.164062 -174.796875 120.976562 -172.367188 138.375 -167.515625 L 138.375 -146.875 C 120.976562 -153.34375 102.164062 -156.578125 81.9375 -156.578125 C 50.375 -156.578125 34.59375 -146.0625 34.59375 -125.03125 C 34.59375 -106.414062 45.273438 -97.109375 66.640625 -97.109375 L 88.96875 -97.109375 C 125.957031 -97.109375 144.453125 -81.328125 144.453125 -49.765625 C 144.453125 -15.773438 122.035156 1.21875 77.203125 1.21875 C 56.078125 1.21875 36.410156 -1.207031 18.203125 -6.0625 Z M 18.203125 -6.0625 "/></g></g></g></svg>